/* XPM */
static char *d2142ffc42654db7b645497babf235c8o5dbdPSQCZOCm9Hh[] = {
/* columns rows colors chars-per-pixel */
"64 64 188 2 ",
"   c #1E1B17",
".  c #241D0D",
"X  c #251E13",
"o  c #291E16",
"O  c #251E19",
"+  c #1F2107",
"@  c #232506",
"#  c #262806",
"$  c #282B04",
"%  c #24250B",
"&  c #2C240E",
"*  c #26280B",
"=  c #2B2A0B",
"-  c #322E06",
";  c #32270E",
":  c #332B0E",
">  c #392D0E",
",  c #2F330C",
"<  c #343206",
"1  c #34320D",
"2  c #38340E",
"3  c #262215",
"4  c #2C2514",
"5  c #2E2915",
"6  c #26231A",
"7  c #2B251A",
"8  c #2D291A",
"9  c #322713",
"0  c #302416",
"q  c #312717",
"w  c #312714",
"e  c #392715",
"r  c #312811",
"t  c #332811",
"y  c #332A11",
"u  c #302913",
"i  c #322812",
"p  c #322A13",
"a  c #372B10",
"s  c #362B13",
"d  c #352C13",
"f  c #372D12",
"g  c #312914",
"h  c #302A15",
"j  c #322B15",
"k  c #302916",
"l  c #302917",
"z  c #312917",
"x  c #322916",
"c  c #302A16",
"v  c #332B16",
"b  c #342A15",
"n  c #342B15",
"m  c #342B17",
"M  c #302C14",
"N  c #322C15",
"B  c #322E14",
"V  c #312D16",
"C  c #332D17",
"Z  c #312F16",
"A  c #352C14",
"S  c #362E15",
"D  c #362C16",
"F  c #362D17",
"G  c #342E17",
"H  c #372E16",
"J  c #352E15",
"K  c #332B15",
"L  c #382D13",
"P  c #392D16",
"I  c #392E14",
"U  c #32271B",
"Y  c #302619",
"T  c #302918",
"R  c #312818",
"E  c #332919",
"W  c #302B18",
"Q  c #312A18",
"!  c #322B18",
"~  c #30281B",
"^  c #33291A",
"/  c #312B1A",
"(  c #302A1B",
")  c #312A1A",
"_  c #352A18",
"`  c #332D19",
"'  c #322F18",
"]  c #312C1B",
"[  c #332D1A",
"{  c #332F1A",
"}  c #342C18",
"|  c #342C1A",
" . c #342F1B",
".. c #32291D",
"X. c #302B1C",
"o. c #322C1D",
"O. c #352C1D",
"+. c #352F1C",
"@. c #352D1F",
"#. c #322B1A",
"$. c #392F1E",
"%. c #382D1A",
"&. c #363114",
"*. c #393011",
"=. c #383113",
"-. c #393015",
";. c #383016",
":. c #3B3114",
">. c #363916",
",. c #393C17",
"<. c #37311B",
"1. c #35311F",
"2. c #36301E",
"3. c #36301B",
"4. c #3E311B",
"5. c #3D321C",
"6. c #3A321A",
"7. c #3C3B18",
"8. c #252120",
"9. c #2C2621",
"0. c #2D2821",
"q. c #2C2C20",
"w. c #2D2A21",
"e. c #322C21",
"r. c #392C21",
"t. c #333120",
"y. c #343021",
"u. c #3B3221",
"i. c #413310",
"p. c #634614",
"a. c #664916",
"s. c #6D4B16",
"d. c #66461C",
"f. c #654C1A",
"g. c #6B4C1A",
"h. c #734F16",
"j. c #704E19",
"k. c #755017",
"l. c #73531C",
"z. c #785218",
"x. c #655022",
"c. c #6D5622",
"v. c #765723",
"b. c #795625",
"n. c #745D25",
"m. c #7F5C24",
"M. c #7E5528",
"N. c #745D29",
"B. c #795E2B",
"V. c #7D6027",
"C. c #7F642F",
"Z. c #806536",
"A. c #8D6730",
"S. c #886834",
"D. c #8D6A38",
"F. c #986C39",
"G. c #F0B35F",
"H. c #E7B266",
"J. c #EBB364",
"K. c #E6B569",
"L. c #ECB66A",
"P. c #EEB96C",
"I. c #F1BA66",
"U. c #F2BA6C",
"Y. c #F8BF6E",
"T. c #EFBC73",
"R. c #F3BC73",
"E. c #F4BF79",
"W. c #F4C075",
"Q. c #F9C176",
"!. c #F6C27C",
"~. c #F9C279",
"^. c #EEC688",
"/. c #F5C683",
"(. c #F9C481",
"). c #F8C986",
"_. c #F6C688",
"`. c #FFDEA7",
"'. c NavajoWhite",
"]. c #FFE1AD",
"[. c #FFE3B4",
"{. c #FFE6BB",
"}. c #FDE7C6",
"|. c #FDE8C5",
" X c #FDEACB",
".X c #FDECD0",
"XX c #FFFEF6",
"oX c #FFFFFD",
/* pixels */
"A ` @.C A 5.-.f 5 7 v v 7 5 5 7 v 4 4 4 3 8 7 6 6 5 C 5 ..` w.8 8 ` 8 8 9.8 ....Y 7 t y 7 5 7 8.6 4 5 ` 5 8 5 0.7 7 Y v 4 v b t ",
"C C 8 v @.1.&.P y 7 5 4 5 5 & 4 4 7 4 8 8 6 8 7 6 4 5 4 5 ` ..4 5 ] 8 8 6 7 7 w 8 v C C 7 7 3 6 6 8 5 5 8 7 5 7 8 7 0 7 4 w v t ",
" .&.3.A -.1.6.L 9 9 #.4 7 : 5 4 4 5 8 8 8 7 6 3 6 7 4 5 ^ ..8 v 5 #.#.4 O X O 7 4 5 #.v v 7 7 3 7 ..` 3.q.8 : 7 6 7 3 4 4 4 C C ",
"f A 8 3.6.@.A P 2 y #.3 4 7 5 8 8 4 q.4 8 w.6 6 O #.8 v A 2...7 8 7 5 5 7 o 3 3 7 7 5 A v 7 7 4 8 ..5 8 8 4 4 o 7 3 4 4 4 8 ` ` ",
"f #.u.` 3.t.-.L f v 8 7 4 7 4 5 4 7 7 7 7 6 5 8 6 6 7 #.b i.5 7 5 4 7 #.7 7 4 4 7 Y v t C 5 5 4 4 3 7 #.7 C : 3 O v 7 7 5 7 b A ",
"f  .5.6.A 3.-.6.P #.7 8 4 3 & & 7 6 5 ` q.8 4 3 5 4 3 Y w ..9 4 4 Y 5 ] 6 3 7 7 7 4 7 9 y 5 4 7 : 7 7 5 5 v 7 6 4 4 7 7 7 8 A v ",
"4 5 u.5.3.:.L A &.7 5 4 5 3 3 5 4 7 3 8 8 7 7 7 5 v 7 5 v 7 #.5 8 ` 5 9.8 7 7 o 7 w 7 9 : b v #.7 7 #.#.@.8 4 7 4 7 7 5 7 ] A 5 ",
"y A A @. .&.6.P : 7 4 5 4 4 3 8 C 5 4 7 8 6 7 7 6 6 7 #.5 ..$.Y e.1.] 8 5 7 6 o % 4 y : 9 5 #...7 O ..5  .v 7 7 3 7 7 #.Y 5 L v ",
"I I 7.5.` &.2 6.P 7 4 4 5 y 4 7 4 3 7 7 w 4 8 q.7 3 Y  .e.6.2.w.@.2.2.A v 3 X o 3 3 #.: & 7 7 w b w #.e.@. .#.5 3 7 3 8 5 v d d ",
"> %.%.@.#.b b A L : b 4 7 v 5 5 4 4 4 5 w 7 9.#.^ v w b r.^ 8 w.5 v A A w 4 7 7 7 3 9 a 4 7 Y 4 9 v v 7  .C #.#.7 4 4 3 7 t : v ",
"> f C 2.e.C #.` : :  .#.f 7 7 w 4 4 3 4 5 6 6 v w w y v 6.P 7 ..5.%.P 7.2.#.7 7 7 7 4 f 7 3 . . 4 : 5 5  .A 7 8 4 7 6 5 5 y y C ",
"5 f 6.@.e.3.5 v P P #.#.` y #.b 9 7 #.#.0.8.O X 7 v C 6.-.$.e.7 ..P i.%.b O.4 7 7 4 v ` #.v O O X ; 5 7 8 5 8 8 7 7 7 4 #.: : #.",
"4 d C 8 #...A =.3.5 8 8 5 y 5 ` y v 7 7 e.` 5 8 #.5  .2.C w 5 7 e.3.2.6.7 4 7 7 4 5 v ^ A v 6 7 3 4 & 4 5 8 8 ] 7 4 5 7 9 ; > v ",
"A d A 1.5 v -.:.&.&.4 8 5 = 5 y 9 v 5 w 7 5 8 8 C 5 y P 5. .e.8 &.-.%. .7 7 7 7 Y 7 7 v ^ w 7 3 7 w 7 5 #.....1.e.7 7 v y ; s w ",
"y f P e.] 7.2  .-.=.4 4 5 5 7 : y 7 w 4 O 4 ` 8 4 v A 5.6.3.8 5 =.P  .q.8 ` ^ ..7 7 v 9 9 w 7 7 7 9 4 v 8 #.` ] 8 7 7  .A > %.L ",
"5 A -.1. .:.:.:.f L v 8 #.v v f A 7 7 4 4 7 8 ` 5 5 v b 3.3.5 = = t A 3.5 #.w Y 7 7 v w 9 7 6 o 0 w v ^ #.@.w...e...v e.6.> b b ",
"5 #.] A #.-.:.L 6.i.P 8 ` A ` A @.8 5 7 5 v #.5 y y v C %.-.= a.x.* &.3.8 4 7 7 7 7 w 0 ; 7 3 7 9 9 7 v t $.8 #.O.P ^ e.P ; y v ",
"4 7 5 7 3  .:.:.6.=.f 7 5 C 5 C v ` ] 8 6 3 v 5  .5 C ` &.= a.G.I.x.* &.8 5 v 7 4 7 v b 7 7 7 #.e w 4 9 : #.$.P ^ $.P 8 b d t b ",
"4 4 y v A 3.:.i.-.f ` 6 7 5 7 5 b 8 5 e.9.8.7 5 ` 5 2 - # a.H.].].T.x.$ 1 &.y 8 v 7 7 v 7 7 7 t 4 4 7 v C #.C P Y #.v v 4 = 4 4 ",
"y v 8 5 v d C 6.@.A 5 4 3 4 5 f y 5 6 8 8 7 7 8 C 2 < 1 g.G.]. X X[.T.f.= < &.8 5 7 w 4 4 9 4 ; 7 7 4 3 #.7 5  .6.4 w  .: ; v w ",
"t b 8 4 ` ..] &.C 2 v v = 5 d  .8 8 8 6 6 5 ..8 C 2 ,.B.K.[. XoXoX X].L.C.>.: 8 9.7 7 Y 4 & 4 v b 7 X 4 #.7 8 C  .w #.` I > A b ",
" .v 7 7 4 w v 5 f : 4 4 v 4 5 f ] ` 7 q.8 ..b 7 C * c.K.]. XXXoXoXoX X[.W.C.5 6 7 7 4 4 3 4 3 4 7 w 4 & 5 4 4 C d v #.@.> t A 1.",
"#.4 7 t v A : C 6.f 5 v 7 4 C : 5 3.4 7 7 8 v 4 5 a.K.[. XoXoXoXoXoXoX X].P.l.4 7 3 4 3 7 4 4 5 4 4 = & . 3 4 f 8 8 #.8 : : t ^ ",
"v v O. .&.1.:.f ` 7 y d 5 5 C &.8 5 = 4 7 6 5 = g.P.].|.XXoXoXoXoXXXoXoX X].W.v.3 v Y X 6 8 4 3 X X X & #.4 7 =.e.3.P 8 L t  .A ",
"t 5 e.` C $.3.L f 7 4 v 5 8 8 : =.A 5 4 5 ` * f.J.].|.XXoXoXoXoXoXoXoXoXXX X[.R.l.% 5 8 5 8 8 6 O 7 7 v A  .7  .3.8 =. .s b #.b ",
"] 5 ` #.%.t.2.:.y & #.4 3 5 3.4 #.#.d =.= 3 a.K.[. XoXoXoXoXoXoXoXoXoXoXoXoX X].U.g.@ &.=.&.8 6 4 5 7 9 v 5 A ..8 8 f A @. .f A ",
"C 4 5 C A 3.@.A L : v b 7 5 7 y ^ b 1 < =.f.J.]. XoXoXoXoXoXoXoXoXoXoXoXoXoXXX X[.U.g.1 < 1 8 6 4 3 7 y 9 4 #.O.` C C 4 v P =.-.",
"=.v 8 5 y.3.6.P =.L ..5 8 5 5 v U  .< $ N.P.[. XXXoXoXoXoXoXoXoXoXoXoXoXoXoXoXoX X[.U.b.= 1 8 4 9 3 4 9 7 v #.A ` ` ` #.t L &.3.",
"f d 8 5 &.] ` C f : w 5 8 5 t y 4 t # p.H.].}.XXoXoXoXoXoXoXoXoXoXoXoXoXoXoXoXoXXX X[.L.a.% 7 4 7 4 4 7 5 9 7 &.8 8 %.Y f > 3.-.",
"f 5 8 5 = A &.C A 6.` #.5 4 4 5 f = p.J.[.}.oXoXoXoXoXoXoXoXoXoXoXoXoXoXoXoXoXoXoXoX X[.E.j.@ Y 4 3 7 7 5 4 w 5 5 4 & 7 = L L P ",
"A 4 5 & 4 4 ] 3.#.t ..w 9.4 5 : @ a.J.]. XXXoXoXoXoXoXoXoXoXoXoXoXoXoXoXoXoXoXoXoXoXXX}.`.U.s.% 9 O #.v 9 4 & 4 7 4 w 5 A =.=.-.",
" .f 4 y &.v #.A #.7 0.4 6 4 y * d.U.]. XoXoXoXoXoXoXoXoXoXoXoXoXoXoXoXoXoXoXoXoXoXoXoXoX X'.Y.j.@ 3 7 3 . X X #.5 ]  .5 C =.=.P ",
"C v b 7 ` 1. .t 7 7 O 4 4 4 7 = s.Q.{. XXXoXoXoXoXoXoXoXoXoXoXoXoXoXoXoXoXoXoXoXoXoXoXoX X{.~.k.% 4 . . & 4 % b #.4 & 4 9 y A  .",
"A y b t #...-.4 4 7 7 y v 4 9 : @ j.!.[. XoXoXoXoXoXoXoXoXoXoXoXoXoXoXoXoXoXoXoXoXoXXX X[./.n.@ = X X 4 & 5 3 X 3 7 4 w ; 5 A  .",
"f y 9 ; 4 7 -.v 4 w Y 9 4 7 7 t y @ j.E.[. XoXoXoXoXoXoXoXoXoXoXoXoXoXoXoXoXoXoXoXoX|.{.).n.@ 4 X 7 7 4 : 7 7 #.y b ] ^ w #.C 5 ",
"4 v C v 9 w f y y C 7 4 ; 7 7 9 b 5 @ l.R.[. XXXoXoXoXoXoXoXoXoXoXoXoXoXoXoXoXoXoX X[._.m.@ 7 4 4 o . & : 7 7 5 7 v 5 5 7 A y C ",
"v 7 ^ 6.-.A : 4 w 5 5 b w 0 7 4 4 4 - 1 D.!.[. XoXoXoXoXoXoXoXoXoXoXoXoXoXoXoXoX X{.(.F.2 = 4 4 3 4 & : : b 7 b 4 4 y 5 d d y C ",
"y v 5 y ^ y : #.` A 4 4 w Y 7 7 7 y 2 < >.m.E.{. XXXoXoXoXoXoXoXoXoXoXoXoXoXoX|.{.E.M.>.< 2 & 4 4 w 4 : y #.5 v y v 7 5 y 4 : 5 ",
"y 4 5 5 y 4 > b 7 4 v 4 0 Y 7 v #.y = 2 5 @ h.E.[. XoXoXoXoXoXoXoXoXoXoXoXXX X{.^.c.% = 2 5 & X X 9 0 & y 9 7 5 5 5 4 y A t t y ",
"v y v 5 7 4 : b Y 7 7 9 . 7 e.5 8 7 4 4 4 5 @ j.!.{. XXXoXoXoXoXoXoXoXoXoX X[._.c.@ v ..5 5 4 7 X 9 & & 5 & 4 4 5 y 4 7 9 : v 5 ",
"#.#.v t #.4 f y w ..7 4 4 4 7 Y 7 7 5 5 4 4 = % g.!.[. XoXoXoXoXoXoXoXoX.X{.(.h.@ 3 9 O.7 7 4 & 4 4 b a & 4 4 & 4 5 4 8 5 v v 5 ",
"t 7 ^ y 5 d  .A 9 4 7 7 9 w 7 v  .#.5 4 7 8 & 5 % j.W.[.|.XXoXoXoXoXXX.X[.!.l.% w Y ..^ 7 4 4 4 4 X X . & . 4 4 4 4 4 7 5 v v b ",
"y 7 5 5 7 w t b Y v 7 O.v 4 7 4 4 ..e.e.5 8 3 3 4 # m.Q.[. XXXoXoXXX X[.~.m.+ 7 7 7 ..#.7 7 y & 4 3 & % = & 7 4 4 4 7 8 5 : y 7 ",
"5 y 7 7 w 3 w b 4 7 #.^ v 4 3 w #.#.q.w.8 3 6 3 4 = >.S.E.{.|.XXXX X{.!.A.,.& 7 9 4 7 v 4 4 5 7 7 w 7 7 w 5 3 4 4 8 8 6 3 5 C y ",
"b v 4 4 Y 5 y b 4 4 7 9 ^ v w 4 7 7 4 8 8 6 7 3 4 1 $ $ l.W.{. X}.[.!.z.# < : 7 4 7 Y 7 & & & 3 O 3 4 4 5 4 6 4 4 7 5 5 Y 9 v v ",
"C 5 5 C 7 4 % 4 4 4 o 0 4 v Y 4 7 5 4 4 6 7 4 7 Y 2 2 2 # k.U.{.{.!.j.@ & 2 4 X . 4 3 9 & 4 6 3 X 4 4 3 3 3 8 5 4 #.Y U y 4 v 7 ",
"5 4 4 t 7 4 9 Y 3 3 7 w 7 v #.7 4 y 8 5 6 8 y 3  .^ d 3.8 * l.!.~.h.% 7 3 7 o 7 6 7 5 %.5 7 4 3 X . 7 4 8 3 v 7 7 0 7 5 y 3 7 9 ",
"5 4 & : 7 #.t v Y w 8 5 9.7 4 #.#.b ..8 8 8 4 7 5 v C ] 8 Z 3 g.s.@ 5 9.7 7 U 7 7 .. .%.@.5 7 X   X 4 3 3 7 4 4 4 4 w 5 y 4 4 y ",
"y 5 5 = y .. .1.e.] 7 Y Y 5 #.7 #.#.#.#.#.#.&.8 ^ P %.$.e.#.7 % % 8 5 8 9.7 7 0.7 w b P #.5 3   O o o 4 7 6 6 5 7 #.4 4 d 5 4 & ",
"5 5 5 v t C y 5 ....7 v 4 5 @.A #.v v b #.#.4.8 ` b %.%.` O.q.7 6 8 5 ] 7 5 7 o 7 #.A b ` 7 4 7 o o Y 9 7 7 4 7 7 7 4 & = v 5 v ",
"7 7 v v y 7 #.b y 5 7 ^ 7 7 v  .^ ..#.v #.8 C ` 5 5 v  .8 ` 5 5 q.5 5 q.9.5 Y 7 7 v 4 y 3.7 6 7 4 w 7 7 7 3 #.5 4 7 y 5 y 4 9 7 ",
"4 4 4 5 5 v #.C f v 8 @...7 v v  .7 v y v C 5 ` 7 #.A P 5.@...8 8 8 5 8 8 7 7 7 7 4 5 5 3.4 4 4 3 7 7 7 5 7 7 4 7 y 7 9 4 & 4 4 ",
"w #.5 f v  .f d ` ` w.#.5 e.@.v ..8 5 7 8 q.8 5 5 v -.3.C v 8 5 6 8 ` C 6 6 3 7 7 7 v ^ 3.` 5 4 O 3 #.7 5 5 #.7 7 5 y 4 4 7 4 3 ",
"7 4 4 4 4 v -.=.C v 5 8 w.^ v #.5 8 8 ` 3.3.3.5 w 7 f %.#.5 6 e.8 #.v 5 3 6 3 7 7 3  .P A ` 8 7 3 4 v  .A 4 3 5 7 5 5 y & 9 5 : ",
"; 7 y  .A =.-.3.=.: 7 ..e.7 v A ` 8 5 &.&.` 8 q.#.5 t 2. .8 7 w.8 #.7 #.8 3 9 v 7 8 v 4 5 5 5 4 7 7 7 t C 7 4 8 7 7 4 5 = ; 4 4 ",
"5 5 b #.%.:.-.6.P =.5 4 #.8 #.#.#.8 8 7 5 5 4 3 4 v P A A #.6 U 8 8 5 ` 7 3 4 7 7 5 y t ` #.5 y 7 7 7  .6.#.4 3 O 7 4 v ; 7 4 & ",
"4 v ` C %.:.:.> L :...5 7 #.#.7 y 7 7 ] ` ` q.C 4 5 y v O.5 6 7 ..7  .8 7 7 6 7 #.7 a P P #.7 4 4 6 7 A P  .C 7 7 7 7 t t b v 5 ",
"b C v y #.=.=.-.:.:.5 7 7 7 5 f @.] 5 ] ` ] 8 5 t v ` v ^ w.7 e.4 5 ] 5 7 6 8.6 6 #.e a  .7 5 = X O 5 C v v Y 7 7 v 7 b t 5 5 5 ",
"5 y 7 9 #.&.6.:.%.f 5 7 7 #.5 v ` q.8 v 5 8 8 8 A 5 #.y  .#...8 5 5 ] ] q.6 3 5 Y v b P w 5 5 d 6 o 7 C 7 4 4 O 7 ..7 7 & 3 4 5 ",
"5 ` v v v A P &.P v 8 7 v v 5 v 8 8 8 #.` 8 7 8 8 ` #.v 7 7 5 8 8 #. .5 7 8 6 7 7 7 t A 5 7 7 3 7 7 #.] 8 #.P v 7 7 v 9 0 w 3 y ",
"A ` 5 v  .v C C ^ > #.5 5 v v 5 8 4 8 ` 8 8 8 8 A  .v 4 X 3 w 5 8 4 8 8 7 5 3 3 6 7 ; t b 4 6 O 7 7 5 3.8 8 5 #.#.4 w Y 9 w 7 y ",
"5 v v 7 #.v v 5 : : 7 5 5 5 ` 7 7 6 7 5 ` 5 6 4 C A 5 4 4 v v 3 8 8 Z 7 3 7 4 5 7 5 ; w d 4 6 3 4 3 7 3.8 4 5 4 4 4 5 w & 4 4 4 ",
"` C 5 4 7 t 9 %.:.y 7 9 #.7 5 5 8 3 3 4 5 4 3 8 5 4 v 5 5 ..e.8 8 8 3.6 6 7 7 7 7 5 & & y 5 3 4 y 7 5 ` v 8 Y 7 0 4 v w v 7 4 y ",
"] A ^ A C v L  . .y t v 7 v #.7 7 8 4 4 7 ` 6 4 y 5 y 5 8 5 ] q.5 5 5 6 9.8 9.O 6 v : 5 b 7 O 4 7 7 v &.1.e.y 7 Y 7 7 w 7 4 w 7 "
};
